<svg xmlns="http://www.w3.org/2000/svg" viewBox="0 0 1200 360" role="img" aria-label="kore Knowledge Intelligence logo">

<g transform="translate(90.00,33.88) scale(2.25)" shape-rendering="crispEdges">
<rect x="44" y="0" width="9" height="9" rx="1" ry="1" fill="#2ad19d"/>
<rect x="55" y="0" width="9" height="9" rx="1" ry="1" fill="#28cea8"/>
<rect x="66" y="0" width="9" height="9" rx="1" ry="1" fill="#26cbb3"/>
<rect x="77" y="0" width="9" height="9" rx="1" ry="1" fill="#23c7bf"/>
<rect x="88" y="0" width="9" height="9" rx="1" ry="1" fill="#21c4ca"/>
<rect x="22" y="11" width="9" height="9" rx="1" ry="1" fill="#2fd886"/>
<rect x="33" y="11" width="9" height="9" rx="1" ry="1" fill="#2dd591"/>
<rect x="55" y="11" width="9" height="9" rx="1" ry="1" fill="#28cea8"/>
<rect x="66" y="11" width="9" height="9" rx="1" ry="1" fill="#26cbb3"/>
<rect x="77" y="11" width="9" height="9" rx="1" ry="1" fill="#23c7bf"/>
<rect x="99" y="11" width="9" height="9" rx="1" ry="1" fill="#1fc1d6"/>
<rect x="110" y="11" width="9" height="9" rx="1" ry="1" fill="#1cbee1"/>
<rect x="11" y="22" width="9" height="9" rx="1" ry="1" fill="#32db7a"/>
<rect x="22" y="22" width="9" height="9" rx="1" ry="1" fill="#2fd886"/>
<rect x="44" y="22" width="9" height="9" rx="1" ry="1" fill="#2ad19d"/>
<rect x="55" y="22" width="9" height="9" rx="1" ry="1" fill="#28cea8"/>
<rect x="66" y="22" width="9" height="9" rx="1" ry="1" fill="#26cbb3"/>
<rect x="77" y="22" width="9" height="9" rx="1" ry="1" fill="#23c7bf"/>
<rect x="88" y="22" width="9" height="9" rx="1" ry="1" fill="#21c4ca"/>
<rect x="99" y="22" width="9" height="9" rx="1" ry="1" fill="#1fc1d6"/>
<rect x="110" y="22" width="9" height="9" rx="1" ry="1" fill="#1cbee1"/>
<rect x="121" y="22" width="9" height="9" rx="1" ry="1" fill="#1abaed"/>
<rect x="0" y="33" width="9" height="9" rx="1" ry="1" fill="#34df6f"/>
<rect x="11" y="33" width="9" height="9" rx="1" ry="1" fill="#32db7a"/>
<rect x="22" y="33" width="9" height="9" rx="1" ry="1" fill="#2fd886"/>
<rect x="33" y="33" width="9" height="9" rx="1" ry="1" fill="#2dd591"/>
<rect x="44" y="33" width="9" height="9" rx="1" ry="1" fill="#2ad19d"/>
<rect x="55" y="33" width="9" height="9" rx="1" ry="1" fill="#28cea8"/>
<rect x="66" y="33" width="9" height="9" rx="1" ry="1" fill="#26cbb3"/>
<rect x="77" y="33" width="9" height="9" rx="1" ry="1" fill="#23c7bf"/>
<rect x="88" y="33" width="9" height="9" rx="1" ry="1" fill="#21c4ca"/>
<rect x="99" y="33" width="9" height="9" rx="1" ry="1" fill="#1fc1d6"/>
<rect x="110" y="33" width="9" height="9" rx="1" ry="1" fill="#1cbee1"/>
<rect x="121" y="33" width="9" height="9" rx="1" ry="1" fill="#1abaed"/>
<rect x="0" y="44" width="9" height="9" rx="1" ry="1" fill="#34df6f"/>
<rect x="11" y="44" width="9" height="9" rx="1" ry="1" fill="#32db7a"/>
<rect x="22" y="44" width="9" height="9" rx="1" ry="1" fill="#2fd886"/>
<rect x="44" y="44" width="9" height="9" rx="1" ry="1" fill="#2ad19d"/>
<rect x="55" y="44" width="9" height="9" rx="1" ry="1" fill="#28cea8"/>
<rect x="66" y="44" width="9" height="9" rx="1" ry="1" fill="#26cbb3"/>
<rect x="77" y="44" width="9" height="9" rx="1" ry="1" fill="#23c7bf"/>
<rect x="88" y="44" width="9" height="9" rx="1" ry="1" fill="#21c4ca"/>
<rect x="99" y="44" width="9" height="9" rx="1" ry="1" fill="#1fc1d6"/>
<rect x="110" y="44" width="9" height="9" rx="1" ry="1" fill="#1cbee1"/>
<rect x="121" y="44" width="9" height="9" rx="1" ry="1" fill="#1abaed"/>
<rect x="0" y="55" width="9" height="9" rx="1" ry="1" fill="#34df6f"/>
<rect x="11" y="55" width="9" height="9" rx="1" ry="1" fill="#32db7a"/>
<rect x="22" y="55" width="9" height="9" rx="1" ry="1" fill="#2fd886"/>
<rect x="33" y="55" width="9" height="9" rx="1" ry="1" fill="#2dd591"/>
<rect x="44" y="55" width="9" height="9" rx="1" ry="1" fill="#2ad19d"/>
<rect x="55" y="55" width="9" height="9" rx="1" ry="1" fill="#28cea8"/>
<rect x="66" y="55" width="9" height="9" rx="1" ry="1" fill="#26cbb3"/>
<rect x="77" y="55" width="9" height="9" rx="1" ry="1" fill="#23c7bf"/>
<rect x="88" y="55" width="9" height="9" rx="1" ry="1" fill="#21c4ca"/>
<rect x="99" y="55" width="9" height="9" rx="1" ry="1" fill="#1fc1d6"/>
<rect x="110" y="55" width="9" height="9" rx="1" ry="1" fill="#1cbee1"/>
<rect x="121" y="55" width="9" height="9" rx="1" ry="1" fill="#1abaed"/>
<rect x="11" y="66" width="9" height="9" rx="1" ry="1" fill="#32db7a"/>
<rect x="22" y="66" width="9" height="9" rx="1" ry="1" fill="#2fd886"/>
<rect x="33" y="66" width="9" height="9" rx="1" ry="1" fill="#2dd591"/>
<rect x="44" y="66" width="9" height="9" rx="1" ry="1" fill="#2ad19d"/>
<rect x="55" y="66" width="9" height="9" rx="1" ry="1" fill="#28cea8"/>
<rect x="66" y="66" width="9" height="9" rx="1" ry="1" fill="#26cbb3"/>
<rect x="77" y="66" width="9" height="9" rx="1" ry="1" fill="#23c7bf"/>
<rect x="88" y="66" width="9" height="9" rx="1" ry="1" fill="#21c4ca"/>
<rect x="99" y="66" width="9" height="9" rx="1" ry="1" fill="#1fc1d6"/>
<rect x="110" y="66" width="9" height="9" rx="1" ry="1" fill="#1cbee1"/>
<rect x="22" y="77" width="9" height="9" rx="1" ry="1" fill="#2fd886"/>
<rect x="33" y="77" width="9" height="9" rx="1" ry="1" fill="#2dd591"/>
<rect x="44" y="77" width="9" height="9" rx="1" ry="1" fill="#2ad19d"/>
<rect x="55" y="77" width="9" height="9" rx="1" ry="1" fill="#28cea8"/>
<rect x="66" y="77" width="9" height="9" rx="1" ry="1" fill="#26cbb3"/>
<rect x="77" y="77" width="9" height="9" rx="1" ry="1" fill="#23c7bf"/>
<rect x="99" y="77" width="9" height="9" rx="1" ry="1" fill="#1fc1d6"/>
<rect x="110" y="77" width="9" height="9" rx="1" ry="1" fill="#1cbee1"/>
<rect x="121" y="77" width="9" height="9" rx="1" ry="1" fill="#1abaed"/>
<rect x="55" y="88" width="9" height="9" rx="1" ry="1" fill="#28cea8"/>
<rect x="77" y="88" width="9" height="9" rx="1" ry="1" fill="#23c7bf"/>
<rect x="110" y="88" width="9" height="9" rx="1" ry="1" fill="#1cbee1"/>
<rect x="55" y="99" width="9" height="9" rx="1" ry="1" fill="#28cea8"/>
<rect x="88" y="99" width="9" height="9" rx="1" ry="1" fill="#21c4ca"/>
</g>
<text x="471.75" y="175" fill="#F3F4F6" font-family="Inter, system-ui, -apple-system, Segoe UI, Roboto, Helvetica, Arial, sans-serif" font-size="160" font-weight="600" letter-spacing="0">kore</text>
<text x="481.75" y="260" fill="#D1D5DB" font-family="Inter, system-ui, -apple-system, Segoe UI, Roboto, Helvetica, Arial, sans-serif" font-size="44" font-weight="400" letter-spacing="0">Knowledge Intelligence</text>
</svg>